# xmcd CD database file
#
# Track frame offsets:
#	150
#	6757
#	44190
#	81100
#	118758
#	155742
#	192799
#	227233
#
# Disc length: 3602 seconds
#
# Revision: 0
# Processed by: cddbd v1.5.2PL0 Copyright (c) Steve Scherf et al.
# Submitted via: CDex 1.51
#
DISCID=670e1008
DTITLE=David Arkenstone - Journey Of The Whales
DYEAR=2006
DGENRE=New Age
TTITLE0=Prelude
TTITLE1=The Deep Blue
TTITLE2=Breath Of The Ocean
TTITLE3=The Long Journey
TTITLE4=Sparkles In The Sea
TTITLE5=Majestic Giants
TTITLE6=Waltz Of The Whales
TTITLE7=Floating
EXTD=YEAR: 2006
EXTT0=
EXTT1=
EXTT2=
EXTT3=
EXTT4=
EXTT5=
EXTT6=
EXTT7=
PLAYORDER=
